<svg width="24" height="24" viewBox="0 0 24 24" fill="none" xmlns="http://www.w3.org/2000/svg">
<g clip-path="url(#clip0_3482_58)">
<path d="M19 11.5V12.5C19 12.6326 18.9473 12.7598 18.8536 12.8536C18.7598 12.9473 18.6326 13 18.5 13H13V18.5C13 18.6326 12.9473 18.7598 12.8536 18.8536C12.7598 18.9473 12.6326 19 12.5 19H11.5C11.3674 19 11.2402 18.9473 11.1464 18.8536C11.0527 18.7598 11 18.6326 11 18.5V13H5.5C5.36739 13 5.24021 12.9473 5.14645 12.8536C5.05268 12.7598 5 12.6326 5 12.5V11.5C5 11.3674 5.05268 11.2402 5.14645 11.1464C5.24021 11.0527 5.36739 11 5.5 11H11V5.5C11 5.36739 11.0527 5.24021 11.1464 5.14645C11.2402 5.05268 11.3674 5 11.5 5H12.5C12.6326 5 12.7598 5.05268 12.8536 5.14645C12.9473 5.24021 13 5.36739 13 5.5V11H18.5C18.6326 11 18.7598 11.0527 18.8536 11.1464C18.9473 11.2402 19 11.3674 19 11.5Z" fill="#0052EA"/>
</g>
<defs>
<clipPath id="clip0_3482_58">
<rect width="24" height="24" fill="white"/>
</clipPath>
</defs>
</svg>
