<svg width="24" height="24" viewBox="0 0 24 24" fill="none" xmlns="http://www.w3.org/2000/svg">
<path d="M17.8499 16.44C17.9445 16.5339 17.9978 16.6617 17.9978 16.795C17.9978 16.9283 17.9445 17.0561 17.8499 17.15L17.1499 17.85C17.056 17.9447 16.9282 17.9979 16.7949 17.9979C16.6615 17.9979 16.5337 17.9447 16.4399 17.85L11.9999 13.41L7.55985 17.85C7.46597 17.9447 7.33817 17.9979 7.20485 17.9979C7.07153 17.9979 6.94374 17.9447 6.84985 17.85L6.14985 17.15C6.0552 17.0561 6.00195 16.9283 6.00195 16.795C6.00195 16.6617 6.0552 16.5339 6.14985 16.44L10.5899 12L6.14985 7.56C6.0552 7.46612 6.00195 7.33832 6.00195 7.205C6.00195 7.07169 6.0552 6.94389 6.14985 6.85L6.84985 6.15C6.94374 6.05535 7.07153 6.00211 7.20485 6.00211C7.33817 6.00211 7.46597 6.05535 7.55985 6.15L11.9999 10.59L16.4399 6.15C16.5337 6.05535 16.6615 6.00211 16.7949 6.00211C16.9282 6.00211 17.056 6.05535 17.1499 6.15L17.8499 6.85C17.9445 6.94389 17.9978 7.07169 17.9978 7.205C17.9978 7.33832 17.9445 7.46612 17.8499 7.56L13.4099 12L17.8499 16.44Z" fill="#212121"/>
</svg>
