<svg width="24" height="24" viewBox="0 0 24 24" fill="none" xmlns="http://www.w3.org/2000/svg">
<path d="M22.0001 12C22.0001 16.9706 17.9707 21 13.0001 21C11.1525 21.0061 9.34893 20.4363 7.8401 19.37C7.71954 19.2831 7.64286 19.148 7.6301 19C7.61816 18.8559 7.66922 18.7136 7.7701 18.61L8.4901 17.88C8.65911 17.7127 8.92255 17.6876 9.1201 17.82C10.2663 18.5925 11.6179 19.0036 13.0001 19C16.8661 19 20.0001 15.866 20.0001 12C20.0001 8.13401 16.8661 5 13.0001 5C9.1341 5 6.0001 8.13401 6.0001 12H8.3601C8.49568 11.998 8.62602 12.0523 8.7201 12.15L8.9201 12.35C9.01475 12.4439 9.068 12.5717 9.068 12.705C9.068 12.8383 9.01475 12.9661 8.9201 13.06L5.3901 16.6C5.19228 16.7918 4.87791 16.7918 4.6801 16.6L1.1501 13.06C1.05544 12.9661 1.0022 12.8383 1.0022 12.705C1.0022 12.5717 1.05544 12.4439 1.1501 12.35L1.3501 12.15C1.44417 12.0523 1.57451 11.998 1.7101 12H4.0001C4.0001 7.02944 8.02953 3 13.0001 3C17.9707 3 22.0001 7.02944 22.0001 12Z" fill="#0052EA"/>
</svg>
